<svg xmlns="http://www.w3.org/2000/svg" xmlns:xlink="http://www.w3.org/1999/xlink" width="436.486" height="223.946" viewBox="0 0 436.486 223.946">
  <defs>
    <clipPath id="clip-path">
      <rect id="Rectangle_26" data-name="Rectangle 26" width="436.486" height="223.946" fill="none"/>
    </clipPath>
  </defs>
  <g id="Group_10296" data-name="Group 10296" transform="translate(0)">
    <g id="Group_10189" data-name="Group 10189" transform="translate(0)" clip-path="url(#clip-path)">
      <path id="Path_2173" data-name="Path 2173" d="M322.538,197.12a12.925,12.925,0,0,0-5.93-1.264H302.22V230.9h5.055v-14.34h9.333a12.9,12.9,0,0,0,5.93-1.288,9.043,9.043,0,0,0,3.865-3.646,10.9,10.9,0,0,0,1.337-5.468,10.617,10.617,0,0,0-1.361-5.444,9.161,9.161,0,0,0-3.841-3.6m-.777,12.2a5.174,5.174,0,0,1-2.236,2.09,7.757,7.757,0,0,1-3.5.729h-8.75V200.279h8.75a6.764,6.764,0,0,1,4.788,1.6,5.564,5.564,0,0,1,1.725,4.277,6.267,6.267,0,0,1-.777,3.16" transform="translate(-88.017 -57.04)" fill="#fff"/>
      <path id="Path_2174" data-name="Path 2174" d="M368.407,197.479a18.386,18.386,0,0,0-17.839,0,16.287,16.287,0,0,0-6.2,6.416,20.4,20.4,0,0,0,0,18.568,16.273,16.273,0,0,0,6.2,6.417,18.386,18.386,0,0,0,17.839,0,16.28,16.28,0,0,0,6.2-6.417,20.391,20.391,0,0,0,0-18.568,16.3,16.3,0,0,0-6.2-6.416m1.677,22.651a12.121,12.121,0,0,1-4.326,4.861,11.969,11.969,0,0,1-12.541,0,12.109,12.109,0,0,1-4.327-4.861,16.313,16.313,0,0,1,0-13.9,12.119,12.119,0,0,1,4.327-4.861,11.969,11.969,0,0,1,12.541,0,12.132,12.132,0,0,1,4.326,4.861,16.306,16.306,0,0,1,0,13.9" transform="translate(-99.641 -56.84)" fill="#fff"/>
      <path id="Path_2175" data-name="Path 2175" d="M421.755,221.182a13.282,13.282,0,0,0-1.653-4.011,6.182,6.182,0,0,0-2.868-2.211,9.9,9.9,0,0,0,4.326-3.5,9.358,9.358,0,0,0,1.556-5.4,10.729,10.729,0,0,0-1.337-5.468,8.7,8.7,0,0,0-3.865-3.524,13.673,13.673,0,0,0-5.978-1.215H397.548V230.9H402.6V216.223H408a13.569,13.569,0,0,1,4.521.632,5.985,5.985,0,0,1,2.771,1.944,9.216,9.216,0,0,1,1.556,3.452l1.992,8.651h5.445v-.194Zm-6.878-10.062a8.38,8.38,0,0,1-3.524.68H402.6V200.28h8.75a7.063,7.063,0,0,1,4.812,1.531,5.353,5.353,0,0,1,1.75,4.253,5.869,5.869,0,0,1-.777,3.087,4.988,4.988,0,0,1-2.26,1.969" transform="translate(-115.779 -57.04)" fill="#fff"/>
      <path id="Path_2176" data-name="Path 2176" d="M438.354,200.279H449.34V230.9h5.1V200.279h10.986v-4.423H438.354Z" transform="translate(-127.663 -57.04)" fill="#fff"/>
      <path id="Path_2177" data-name="Path 2177" d="M495.8,211.017l-6.417-1.847a8.186,8.186,0,0,1-3.427-1.75,3.933,3.933,0,0,1-1.191-3.014,4.2,4.2,0,0,1,.8-2.552,5.009,5.009,0,0,1,2.309-1.677,9.96,9.96,0,0,1,3.6-.583,8.076,8.076,0,0,1,5.08,1.555,6.559,6.559,0,0,1,2.5,4.083h.195l4.618-1.07a8.639,8.639,0,0,0-1.994-4.666,11.368,11.368,0,0,0-4.423-3.184,15.318,15.318,0,0,0-5.978-1.143,15.116,15.116,0,0,0-6.124,1.192,10.016,10.016,0,0,0-4.253,3.329,8.3,8.3,0,0,0-1.532,4.959,7.979,7.979,0,0,0,2.26,6.051,14.552,14.552,0,0,0,6.246,3.28l6.27,1.848a8.033,8.033,0,0,1,3.573,2.017,4.739,4.739,0,0,1,1.288,3.427,4.64,4.64,0,0,1-.923,2.844,6.084,6.084,0,0,1-2.625,1.944,10.228,10.228,0,0,1-3.937.7,9.108,9.108,0,0,1-4.132-.948,8.154,8.154,0,0,1-3.087-2.649,7.741,7.741,0,0,1-1.385-3.791h-.194l-4.715,1.069a10.133,10.133,0,0,0,2.114,5.493,12.97,12.97,0,0,0,4.885,3.84,15.194,15.194,0,0,0,6.514,1.41,16.379,16.379,0,0,0,6.659-1.264,10.228,10.228,0,0,0,4.448-3.572,9.2,9.2,0,0,0,1.58-5.323,8.884,8.884,0,0,0-2.285-6.562,14.417,14.417,0,0,0-6.319-3.451" transform="translate(-139.268 -56.84)" fill="#fff"/>
      <rect id="Rectangle_25" data-name="Rectangle 25" width="5.056" height="35.046" transform="translate(370.235 138.816)" fill="#fff"/>
      <path id="Path_2178" data-name="Path 2178" d="M557.063,198.116a17.68,17.68,0,0,0-8.92-2.26H537.109V230.9h11.034a17.68,17.68,0,0,0,8.92-2.26,16.182,16.182,0,0,0,6.2-6.247,19.3,19.3,0,0,0,0-18.033,16.19,16.19,0,0,0-6.2-6.246m1.677,21.971a11.7,11.7,0,0,1-10.6,6.392h-5.979v-26.2h5.979a11.7,11.7,0,0,1,10.6,6.392,15.239,15.239,0,0,1,0,13.416" transform="translate(-156.424 -57.04)" fill="#fff"/>
      <path id="Path_2179" data-name="Path 2179" d="M606.392,200.279v-4.423H583.4V230.9h22.991v-4.423H588.456v-11.86h14.388v-4.472H588.456v-9.867Z" transform="translate(-169.906 -57.04)" fill="#fff"/>
      <path id="Path_2180" data-name="Path 2180" d="M306.2,287.077a12.5,12.5,0,0,1-4.691-3.525,10.14,10.14,0,0,1-2.236-5.176l2.284-1.216h.195a9.149,9.149,0,0,0,1.7,4.594,9.826,9.826,0,0,0,3.792,3.135,11.528,11.528,0,0,0,5.055,1.118,13.02,13.02,0,0,0,5.032-.9,7.6,7.6,0,0,0,3.33-2.5,6.12,6.12,0,0,0,1.166-3.693,6.316,6.316,0,0,0-1.579-4.472,9.841,9.841,0,0,0-4.4-2.576l-7.341-2.188a13.571,13.571,0,0,1-5.711-3.061,7.339,7.339,0,0,1-2.066-5.542,7.682,7.682,0,0,1,1.41-4.594,9.136,9.136,0,0,1,4.01-3.062,15.372,15.372,0,0,1,6-1.094,14.272,14.272,0,0,1,5.591,1.045,10.3,10.3,0,0,1,4.01,2.892,9.077,9.077,0,0,1,1.969,4.18l-2.187,1.167h-.195a7.838,7.838,0,0,0-3.014-5.129,10.008,10.008,0,0,0-6.173-1.823,12.734,12.734,0,0,0-4.69.779,6.384,6.384,0,0,0-2.99,2.235,5.783,5.783,0,0,0-1.021,3.4,5.044,5.044,0,0,0,1.483,3.84,10.407,10.407,0,0,0,4.3,2.236l7.486,2.236a12.233,12.233,0,0,1,5.736,3.354,8.87,8.87,0,0,1,2.09,6.222,8.289,8.289,0,0,1-1.507,4.934,9.735,9.735,0,0,1-4.278,3.281,16.566,16.566,0,0,1-6.465,1.167,14.844,14.844,0,0,1-6.1-1.264" transform="translate(-87.158 -73.485)" fill="#fff"/>
      <path id="Path_2181" data-name="Path 2181" d="M370.815,261.048a16.049,16.049,0,0,0-6-6.417,17.319,17.319,0,0,0-17.28,0,16.081,16.081,0,0,0-5.979,6.417,21,21,0,0,0,0,18.568,16.076,16.076,0,0,0,5.979,6.416,15.5,15.5,0,0,0,1.634.853l14.188,10.546,1.459-2.042-10.33-7.13c.549.049,1.106.082,1.677.082a16.459,16.459,0,0,0,8.653-2.309,16.043,16.043,0,0,0,6-6.416,21,21,0,0,0,0-18.568M368.458,278.4a13.682,13.682,0,0,1-5.031,5.59,14.055,14.055,0,0,1-14.51,0,13.731,13.731,0,0,1-5.007-5.59,19,19,0,0,1,0-16.138,13.74,13.74,0,0,1,5.007-5.59,14.055,14.055,0,0,1,14.51,0,13.691,13.691,0,0,1,5.031,5.59,19,19,0,0,1,0,16.138" transform="translate(-98.842 -73.485)" fill="#fff"/>
      <path id="Path_2182" data-name="Path 2182" d="M399.846,287.034A10.676,10.676,0,0,1,395.4,282.8a12.314,12.314,0,0,1-1.554-6.221V253.008h2.625V277.02a9.156,9.156,0,0,0,1.24,4.764,8.454,8.454,0,0,0,3.524,3.257,11.609,11.609,0,0,0,5.346,1.167,11.765,11.765,0,0,0,5.372-1.167,8.435,8.435,0,0,0,3.548-3.257,9.151,9.151,0,0,0,1.24-4.764V253.008h2.624v23.575a12.164,12.164,0,0,1-1.58,6.221,10.828,10.828,0,0,1-4.472,4.229,15.792,15.792,0,0,1-13.464,0" transform="translate(-114.701 -73.684)" fill="#fff"/>
      <path id="Path_2183" data-name="Path 2183" d="M449.518,253.007h-2.528l-13.027,31.936L432.8,287.86v.194h2.625l.1-.194,1.167-2.917,2.838-7h17.314l3.957,9.917.1.194h2.917v-.194Zm-9.049,22.6,7.785-19.2,7.654,19.2Z" transform="translate(-126.045 -73.684)" fill="#fff"/>
      <path id="Path_2184" data-name="Path 2184" d="M483,253.008h13.27a13.793,13.793,0,0,1,5.857,1.143,8.259,8.259,0,0,1,3.743,3.329,10.174,10.174,0,0,1,1.288,5.25,9.436,9.436,0,0,1-1.677,5.736,8.858,8.858,0,0,1-4.886,3.208,6.189,6.189,0,0,1,3.184,2.211,13.479,13.479,0,0,1,1.774,4.448l1.6,6.611.729,2.917v.194h-2.625l-2.187-9.09a10.851,10.851,0,0,0-1.628-3.815,6.059,6.059,0,0,0-2.941-2.115,15.525,15.525,0,0,0-5.1-.68h-7.777v15.7H483Zm17.669,16.138a6.375,6.375,0,0,0,2.8-2.5,7.5,7.5,0,0,0,.972-3.913,6.964,6.964,0,0,0-2.162-5.42,8.52,8.52,0,0,0-5.955-1.969H485.623v14.68h10.694a9.97,9.97,0,0,0,4.35-.875" transform="translate(-140.666 -73.684)" fill="#fff"/>
      <path id="Path_2185" data-name="Path 2185" d="M546.944,255.341v-2.333H525.313v35.046h21.631v-2.333H527.938V270.507h15.214v-2.334H527.938V255.341Z" transform="translate(-152.989 -73.685)" fill="#fff"/>
      <path id="Path_2187" data-name="Path 2187" d="M262.634,111.659,150.974,0,137.113,207.885l-.021.326,14.494,14.51Zm-8.33,0-91.376,91.363L223.841,81.2Zm-71-71-33.588,66.9,6.281-94.211ZM143.151,205.941l5.46-81.9,39.474-78.6,33.144,33.145L155.088,210.861l-3.508,3.508Z" transform="translate(-39.926)" fill="#fff"/>
      <path id="Path_2186" data-name="Path 2186" d="M99.5,59.768a334.544,334.544,0,0,0-2.209-38.641l-.172-1.478L0,116.769l69.587,69.6.481-.761C88.5,156.544,99.5,109.5,99.5,59.768m-91.225,57,84.255-84.24c.734,8.968,1.106,18.122,1.106,27.239,0,45.134-9.416,88.826-25.219,117.158Z" transform="translate(0 -5.722)" fill="#fff"/>
    </g>
  </g>
</svg>
